<svg xmlns="http://www.w3.org/2000/svg" width="16" height="16" fill="none" viewBox="0 0 16 16">
    <g opacity=".4">
        <mask id="fntblzbppa" width="14" height="16" x="1" y="0" maskUnits="userSpaceOnUse">
            <path fill="#fff" fill-rule="evenodd" d="M13.333 2h-.666v-.667c0-.367-.3-.666-.667-.666-.367 0-.667.299-.667.666V2H4.667v-.667c0-.367-.3-.666-.667-.666-.367 0-.667.299-.667.666V2h-.666c-.734 0-1.334.6-1.334 1.333V14c0 .733.6 1.333 1.334 1.333h10.666c.734 0 1.334-.6 1.334-1.333V3.333c0-.734-.6-1.333-1.334-1.333zm-.666 12H3.333c-.367 0-.666-.3-.666-.667v-8h10.666v8c0 .367-.3.667-.666.667z" clip-rule="evenodd"/>
        </mask>
        <g mask="url(#fntblzbppa)">
            <path fill="#6A9EFF" fill-rule="evenodd" d="M0 16h16V0H0v16z" clip-rule="evenodd"/>
            <path fill="#212121" d="M0 0H16V16H0z"/>
        </g>
    </g>
</svg>
